<?xml version="1.0" standalone="no"?><!DOCTYPE svg PUBLIC "-//W3C//DTD SVG 1.1//EN" "http://www.w3.org/Graphics/SVG/1.1/DTD/svg11.dtd"><svg t="1509068624729" class="icon" style="" viewBox="0 0 1024 1024" version="1.1" xmlns="http://www.w3.org/2000/svg" p-id="1800" xmlns:xlink="http://www.w3.org/1999/xlink" width="512" height="512"><defs><style type="text/css"></style></defs><path d="M639.915321 874.717022c-4.730745 0-8.249895-1.308809-11.075243-4.117784-2.798742-2.790556-4.106528-6.284123-4.106528-10.986215 0-4.708232 1.300622-8.192589 4.096295-10.963703 2.833535-2.833535 6.347568-4.140297 11.085476-4.140297 4.729721 0 8.246825 1.308809 11.067057 4.121877 2.811022 2.794649 4.115738 6.281053 4.115738 10.982122 0 4.693906-1.310855 8.190543-4.124947 11.004635C648.160099 873.405143 644.63788 874.717022 639.915321 874.717022zM270.593881 815.800167c-1.87572 0-3.866051-0.273223-5.912663-0.809435-3.111874-0.816598-5.760191-4.021593-7.871271-9.524934l-0.080841-0.203638c-24.096814-58.700937-46.793746-113.868397-67.462484-163.970492-17.922185-43.447535-34.984792-84.700077-50.713009-122.610502-14.453177-34.795481-26.591635-64.010873-36.443004-87.650269-9.724479-23.323195-17.645892-42.804898-23.545252-57.904805l-0.051165-0.127913c-17.807574-43.686988-22.565948-55.926754-23.420409-58.501392l-0.212848-0.64059-0.301875-0.603751c-0.8913-1.781576-1.591241-4.189416-2.080382-7.154957-0.497327-2.950192-0.496304-5.796006-0.004093-8.729825 0.301875-1.830695 1.032516-3.165086 2.372024-4.352121 0.033769-0.029676 1.842974-1.565658 9.003048-1.565658l60.334133 0L74.572416 170.137958c-2.105964-5.265934-0.798179-7.296173-0.305969-8.060583 1.832741-2.856048 4.375657-4.77884 8.015557-6.065136 2.350534-0.832971 4.602831-1.237177 6.890944-1.237177 1.496074 0 3.025916 0.181125 4.546549 0.538259 1.787716 0.420579 4.435009 1.485841 6.970762 5.812379l54.383608 130.324184 301.373908 0-53.088102-120.56696c-2.576685-5.992481-2.993171-10.470469-1.205455-13.236466 2.342348-3.613294 5.279237-5.78475 9.237385-6.823406 1.604544-0.421602 3.240811-0.63445 4.864798-0.63445 2.732228 0 5.497201 0.573051 8.450463 1.752924 2.480494 0.991584 6.048763 3.107781 8.337899 9.974166l0.098237 0.293689 52.736085 129.240503 70.874187 0 50.710962-130.404002 0.100284-0.325411c2.567475-8.335852 6.312776-9.717316 7.543813-10.17064 2.289136-0.839111 4.54041-1.267876 6.678096-1.267876 1.794879 0 3.530406 0.286526 5.307889 0.87595 3.931542 1.316995 7.04137 3.684926 9.482979 7.233752 1.261737 1.832741 2.306532 4.314259 0.511653 8.820899l-51.637054 125.237329 303.157531 0 51.642171-133.233444c1.871627-5.151323 4.467755-6.313799 6.760984-6.77224 1.765203-0.353041 3.50687-0.532119 5.174859-0.532119 2.87549 0 5.580089 0.508583 8.270361 1.555425 3.965312 1.546216 7.127328 4.308119 9.657964 8.442276 2.047636 3.350304 2.293229 6.39771 0.812505 10.160407L697.157024 805.27751l-0.067538 0.174985c-2.461051 6.390547-5.864568 7.514137-9.175987 7.776104-0.277316 0.021489-0.537236 0.032746-0.788969 0.032746-0.005117 0-0.010233 0-0.01535 0-1.384533 0-5.501294-0.031722-10.130731-8.524141L519.659447 438.34856l-32.000831 60.928674 128.942721 293.88433 0.105401 0.211824c3.499707 6.999414 1.694595 9.785877 1.014096 10.834766-2.583848 3.997034-6.019087 6.854105-10.506285 8.742105-3.02387 1.272993-6.056949 1.89107-9.274224 1.89107-1.619894 0-3.304256-0.163729-5.001921-0.488117-2.64013-0.50142-5.335519-1.666966-7.18361-6.756891L481.882052 538.798343 366.378411 805.090245c-1.769296 3.983731-4.02364 6.743588-6.859221 8.362458-2.666736 1.521656-5.26184 2.261507-7.933693 2.261507-0.334621 0-0.675382-0.01228-1.014096-0.034792-3.52529-0.233314-6.871501-1.283226-10.255575-3.214205-2.886747-1.647523-5.154393-4.126994-6.928806-7.572466L127.269615 310.014706l-39.998993 0 200.193485 491.403916c0.665149 1.833765 0.688685 3.615341-1.261737 6.26775-2.492774 3.397377-5.544273 5.697769-9.339716 7.042393C274.825252 815.449173 272.7725 815.800167 270.593881 815.800167zM354.49885 764.777097 462.966237 495.78469l-71.613014-185.765891-226.420823-0.14224L354.49885 764.777097zM531.039635 407.602302l154.194848 355.899756L875.814006 321.658907 574.025659 321.658907 531.039635 407.602302zM480.421794 474.269677l24.883737-61.369719L470.124264 321.658907l-52.018747 0L480.421794 474.269677zM518.202259 382.997927 543.776727 321.658907l-43.456744 0L518.202259 382.997927zM203.693192 243.481384c-6.596232 0-9.386788-2.484587-10.912537-4.354168-2.873444-3.521197-4.269233-7.1744-4.269233-11.165294 0-4.124947 1.308809-7.867178 4.000104-11.438517 0.76134-1.010003 3.076058-4.081968 11.181667-4.081968l129.986493 0c6.756891 0 9.868765 2.647293 11.622712 4.638647 3.060709 3.474125 4.547573 7.034207 4.547573 10.881838 0 3.980661-1.400906 7.633864-4.282536 11.165294-0.87902 1.076518-3.552919 4.354168-11.886725 4.354168L203.693192 243.481384z" p-id="1801" fill="#222222"></path></svg>